<svg width="45" height="45" viewBox="0 0 45 45" fill="none" xmlns="http://www.w3.org/2000/svg">
<g clip-path="url(#clip0_2008_65)">
<path d="M35.2396 7.36489C33.0087 5.9351 28.8186 3.9428 24.7931 5.78359C24.4056 5.96122 23.9642 5.68171 23.9642 5.25504V1.55518C23.965 0.700091 23.3842 0 22.6746 0H20.7389C20.0292 0 19.4484 0.700091 19.4484 1.55518V5.47447C19.4484 5.84454 19.1132 6.12493 18.7501 6.05004C17.1156 5.71306 12.8716 5.18886 8.81294 7.61305C8.2574 7.94481 8.57958 8.81557 9.21697 8.69889C11.1065 8.3532 13.5934 8.11548 15.274 8.779C15.7146 8.95228 15.7782 9.55485 15.382 9.81433C14.1881 10.5937 11.986 12.3857 10.5431 15.6806C10.2976 16.2414 10.9872 16.7438 11.4601 16.3546C13.3035 14.836 16.3363 12.7784 18.9085 13.1102C19.2116 13.1493 19.4414 13.3966 19.4371 13.7023C19.411 15.4281 19.4327 21.2918 20.8582 23.5114C21.0828 23.8614 21.5861 23.8788 21.8308 23.5419C22.739 22.2941 24.7078 18.9852 24.6268 13.8181C24.6216 13.4785 24.8941 13.2025 25.2337 13.2138C26.5312 13.2556 29.5945 13.6222 32.0239 15.995C32.4219 16.3842 33.081 16.0481 33.0114 15.496C32.8207 13.9853 31.9891 11.7004 28.9789 9.9284C28.5217 9.65934 28.5992 8.97492 29.1138 8.84866C30.1535 8.59353 31.9455 8.35059 34.8992 8.44811C35.4991 8.4664 35.7438 7.68794 35.2396 7.36489Z" fill="#3C6914"/>
<path d="M35.9171 8.69889C35.8361 8.64229 35.742 8.60659 35.6436 8.5944C35.2953 8.55173 34.9462 8.51168 34.5979 8.46466C34.4733 8.45247 34.3479 8.44289 34.2243 8.4307C31.6869 8.3889 30.0943 8.61008 29.1338 8.84344C28.6123 8.97057 28.5182 9.65412 28.9815 9.92666C31.9917 11.6987 32.8224 13.9835 33.0131 15.4934C33.0827 16.0455 32.4236 16.3816 32.0256 15.9924C29.5962 13.6204 26.5329 13.2538 25.2354 13.2112C24.8959 13.1999 24.6224 13.4759 24.6285 13.8155C24.7086 18.9826 22.7407 22.2915 21.8325 23.5393C21.587 23.8762 21.0845 23.8588 20.8599 23.5088C19.4344 21.2892 19.4127 15.4255 19.4388 13.6997C19.4432 13.3949 19.2133 13.1467 18.9102 13.1076C16.338 12.7749 13.3052 14.8334 11.4618 16.352C10.9889 16.7412 10.2993 16.2388 10.5449 15.678C11.986 12.3874 14.1846 10.5963 15.3793 9.81521C15.7773 9.55485 15.7111 8.94967 15.2679 8.779C14.9448 8.65448 14.5921 8.56218 14.2203 8.49688C14.1542 8.48469 14.0836 8.48381 14.0166 8.49339C11.905 8.78074 9.83083 9.18216 7.81764 9.72204C7.72882 9.74555 7.6461 9.78821 7.57557 9.84743C3.13208 13.5447 0.342163 18.8676 0.342163 24.7862C0.342163 35.9502 10.2627 45 22.4995 45C34.7363 45 44.6569 35.9502 44.6569 24.7862C44.6577 18.2233 41.2287 12.3909 35.9171 8.69889Z" fill="#BD1F1F"/>
<path d="M5.04249 30.1596C4.74469 30.1596 4.45473 30.0073 4.29277 29.733C3.64144 28.6332 3.21477 27.4185 3.02407 26.1228C2.95441 25.6465 3.28356 25.2041 3.75899 25.1345C4.24314 25.0596 4.67765 25.394 4.74731 25.8694C4.9023 26.9256 5.26367 27.9549 5.79135 28.8457C6.03603 29.2593 5.90019 29.7939 5.48571 30.0386C5.34639 30.1205 5.19313 30.1596 5.04249 30.1596Z" fill="#ED7161"/>
<path d="M3.99504 23.2301C3.97501 23.2301 3.95411 23.2293 3.93409 23.2275C3.45343 23.1944 3.09206 22.7782 3.12515 22.2993C3.207 21.1438 3.44385 20.0214 3.83134 18.9608C3.99591 18.5089 4.49398 18.279 4.94852 18.4418C5.40044 18.6064 5.63207 19.1071 5.46749 19.559C5.13573 20.4655 4.93285 21.4277 4.86319 22.4195C4.83097 22.8792 4.4487 23.2301 3.99504 23.2301Z" fill="#ED7161"/>
<g clip-path="url(#clip1_2008_65)">
<path d="M20.1261 16.1009C19.9345 16.1009 19.7508 16.177 19.6153 16.3125C19.4798 16.448 19.4037 16.6318 19.4037 16.8234C19.4037 17.015 19.4798 17.1988 19.6153 17.3343C19.7508 17.4698 19.9345 17.5459 20.1261 17.5459H20.8486V19.092C18.3177 19.4578 16.0192 20.7685 14.4157 22.7605C12.8121 24.7524 12.0224 27.2778 12.2055 29.8284C12.3887 32.3791 13.5309 34.7657 15.4026 36.5082C17.2742 38.2507 19.7364 39.2196 22.2936 39.2202C24.2326 39.2201 26.1307 38.6627 27.7618 37.6144C29.393 36.566 30.6884 35.0709 31.4939 33.3071C32.2993 31.5434 32.5809 29.5852 32.3049 27.666C32.0289 25.7467 31.2071 23.9472 29.9374 22.4818L29.9562 22.4645L30.4677 21.953L30.9777 22.4645C31.0444 22.5335 31.1241 22.5885 31.2123 22.6264C31.3004 22.6643 31.3952 22.6842 31.4911 22.685C31.5871 22.6859 31.6822 22.6676 31.771 22.6313C31.8598 22.5949 31.9404 22.5413 32.0083 22.4735C32.0761 22.4056 32.1298 22.325 32.1661 22.2362C32.2024 22.1474 32.2207 22.0522 32.2199 21.9563C32.219 21.8604 32.1991 21.7656 32.1612 21.6774C32.1234 21.5893 32.0683 21.5096 31.9993 21.4429L29.9562 19.3983C29.8895 19.3293 29.8098 19.2743 29.7216 19.2364C29.6335 19.1985 29.5387 19.1786 29.4428 19.1778C29.3468 19.1769 29.2517 19.1952 29.1629 19.2315C29.0741 19.2679 28.9935 19.3215 28.9256 19.3894C28.8578 19.4572 28.8041 19.5379 28.7678 19.6266C28.7315 19.7154 28.7132 19.8106 28.714 19.9065C28.7149 20.0024 28.7348 20.0972 28.7727 20.1854C28.8105 20.2735 28.8656 20.3532 28.9346 20.4199L29.4461 20.9314L28.9346 21.4429L28.9172 21.4603C27.4546 20.1896 25.6565 19.3678 23.7385 19.0934V17.5459H24.461C24.6526 17.5459 24.8364 17.4698 24.9719 17.3343C25.1074 17.1988 25.1835 17.015 25.1835 16.8234C25.1835 16.6318 25.1074 16.448 24.9719 16.3125C24.8364 16.177 24.6526 16.1009 24.461 16.1009H20.1261ZM23.016 24.1927V29.1055C23.016 29.2971 22.9399 29.4809 22.8044 29.6164C22.669 29.7519 22.4852 29.828 22.2936 29.828H17.2362C17.0446 29.828 16.8609 29.7519 16.7254 29.6164C16.5899 29.4809 16.5138 29.2971 16.5138 29.1055C16.5138 28.9139 16.5899 28.7301 16.7254 28.5946C16.8609 28.4591 17.0446 28.383 17.2362 28.383H21.5711V24.1927C21.5711 24.0011 21.6472 23.8173 21.7827 23.6818C21.9182 23.5463 22.102 23.4702 22.2936 23.4702C22.4852 23.4702 22.669 23.5463 22.8044 23.6818C22.9399 23.8173 23.016 24.0011 23.016 24.1927Z" fill="#F0F0F0"/>
</g>
</g>
<defs>
<clipPath id="clip0_2008_65">
<rect width="45" height="45" fill="white"/>
</clipPath>
<clipPath id="clip1_2008_65">
<rect width="23.1193" height="23.1193" fill="white" transform="translate(10.7339 16.1009)"/>
</clipPath>
</defs>
</svg>
