<svg width="257" height="46" viewBox="0 0 257 46" fill="none" xmlns="http://www.w3.org/2000/svg">
<g clip-path="url(#clip0_2018_2)">
<path d="M35.2396 7.36489C33.0087 5.9351 28.8186 3.9428 24.7931 5.78359C24.4056 5.96122 23.9642 5.68171 23.9642 5.25504V1.55518C23.965 0.700091 23.3842 0 22.6746 0H20.7389C20.0292 0 19.4484 0.700091 19.4484 1.55518V5.47447C19.4484 5.84454 19.1132 6.12493 18.7501 6.05004C17.1156 5.71306 12.8716 5.18886 8.81294 7.61305C8.2574 7.94481 8.57958 8.81557 9.21697 8.69889C11.1065 8.3532 13.5934 8.11548 15.274 8.779C15.7146 8.95228 15.7782 9.55485 15.382 9.81433C14.1881 10.5937 11.986 12.3857 10.5431 15.6806C10.2976 16.2414 10.9872 16.7438 11.4601 16.3546C13.3035 14.836 16.3363 12.7784 18.9085 13.1102C19.2116 13.1493 19.4414 13.3966 19.4371 13.7023C19.411 15.4281 19.4327 21.2918 20.8582 23.5114C21.0828 23.8614 21.5861 23.8788 21.8308 23.5419C22.739 22.2941 24.7078 18.9852 24.6268 13.8181C24.6216 13.4785 24.8941 13.2025 25.2337 13.2138C26.5312 13.2556 29.5945 13.6222 32.0239 15.995C32.4219 16.3842 33.081 16.0481 33.0114 15.496C32.8207 13.9853 31.9891 11.7004 28.9789 9.9284C28.5217 9.65934 28.5992 8.97492 29.1138 8.84866C30.1535 8.59353 31.9455 8.35059 34.8992 8.44811C35.4991 8.4664 35.7438 7.68794 35.2396 7.36489Z" fill="#3C6914"/>
<path d="M35.9171 8.69889C35.8361 8.64229 35.742 8.60659 35.6436 8.5944C35.2953 8.55173 34.9462 8.51168 34.5979 8.46466C34.4733 8.45247 34.3479 8.44289 34.2243 8.4307C31.6869 8.3889 30.0943 8.61008 29.1338 8.84344C28.6123 8.97057 28.5182 9.65412 28.9815 9.92666C31.9917 11.6987 32.8224 13.9835 33.0131 15.4934C33.0827 16.0455 32.4236 16.3816 32.0256 15.9924C29.5962 13.6204 26.5329 13.2538 25.2354 13.2112C24.8959 13.1999 24.6224 13.4759 24.6285 13.8155C24.7086 18.9826 22.7407 22.2915 21.8325 23.5393C21.587 23.8762 21.0845 23.8588 20.8599 23.5088C19.4344 21.2892 19.4127 15.4255 19.4388 13.6997C19.4432 13.3949 19.2133 13.1467 18.9102 13.1076C16.338 12.7749 13.3052 14.8334 11.4618 16.352C10.9889 16.7412 10.2993 16.2388 10.5449 15.678C11.986 12.3874 14.1846 10.5963 15.3793 9.81521C15.7773 9.55485 15.7111 8.94967 15.2679 8.779C14.9448 8.65448 14.5921 8.56218 14.2203 8.49688C14.1542 8.48469 14.0836 8.48381 14.0166 8.49339C11.905 8.78074 9.83083 9.18216 7.81764 9.72204C7.72882 9.74555 7.6461 9.78821 7.57557 9.84743C3.13208 13.5447 0.342163 18.8676 0.342163 24.7862C0.342163 35.9502 10.2627 45 22.4995 45C34.7363 45 44.6569 35.9502 44.6569 24.7862C44.6577 18.2233 41.2287 12.3909 35.9171 8.69889Z" fill="#BD1F1F"/>
<path d="M5.04249 30.1596C4.74469 30.1596 4.45473 30.0073 4.29277 29.733C3.64144 28.6332 3.21477 27.4185 3.02407 26.1228C2.95441 25.6465 3.28356 25.2041 3.75899 25.1345C4.24314 25.0596 4.67765 25.394 4.74731 25.8694C4.9023 26.9256 5.26367 27.9549 5.79135 28.8457C6.03603 29.2593 5.90019 29.7939 5.48571 30.0386C5.34639 30.1205 5.19313 30.1596 5.04249 30.1596Z" fill="#ED7161"/>
<path d="M3.99504 23.2301C3.97501 23.2301 3.95411 23.2293 3.93409 23.2275C3.45343 23.1944 3.09206 22.7782 3.12515 22.2993C3.207 21.1438 3.44385 20.0214 3.83134 18.9608C3.99591 18.5089 4.49398 18.279 4.94852 18.4418C5.40044 18.6064 5.63207 19.1071 5.46749 19.559C5.13573 20.4655 4.93285 21.4277 4.86319 22.4195C4.83097 22.8792 4.4487 23.2301 3.99504 23.2301Z" fill="#ED7161"/>
<g clip-path="url(#clip1_2018_2)">
<path d="M20.1261 16.1009C19.9345 16.1009 19.7508 16.177 19.6153 16.3125C19.4798 16.448 19.4037 16.6318 19.4037 16.8234C19.4037 17.015 19.4798 17.1988 19.6153 17.3343C19.7508 17.4698 19.9345 17.5459 20.1261 17.5459H20.8486V19.092C18.3177 19.4578 16.0192 20.7685 14.4157 22.7605C12.8121 24.7524 12.0224 27.2778 12.2055 29.8284C12.3887 32.3791 13.5309 34.7657 15.4026 36.5082C17.2742 38.2507 19.7364 39.2196 22.2936 39.2202C24.2326 39.2201 26.1307 38.6627 27.7618 37.6144C29.393 36.566 30.6884 35.0709 31.4939 33.3071C32.2993 31.5434 32.5809 29.5852 32.3049 27.666C32.0289 25.7467 31.2071 23.9472 29.9374 22.4818L29.9562 22.4645L30.4677 21.953L30.9777 22.4645C31.0444 22.5335 31.1241 22.5885 31.2123 22.6264C31.3004 22.6643 31.3952 22.6842 31.4911 22.685C31.5871 22.6859 31.6822 22.6676 31.771 22.6313C31.8598 22.5949 31.9404 22.5413 32.0083 22.4735C32.0761 22.4056 32.1298 22.325 32.1661 22.2362C32.2024 22.1474 32.2207 22.0522 32.2199 21.9563C32.219 21.8604 32.1991 21.7656 32.1612 21.6774C32.1234 21.5893 32.0683 21.5096 31.9993 21.4429L29.9562 19.3983C29.8895 19.3293 29.8098 19.2743 29.7216 19.2364C29.6335 19.1985 29.5387 19.1786 29.4428 19.1778C29.3468 19.1769 29.2517 19.1952 29.1629 19.2315C29.0741 19.2679 28.9935 19.3215 28.9256 19.3894C28.8578 19.4572 28.8041 19.5379 28.7678 19.6266C28.7315 19.7154 28.7132 19.8106 28.714 19.9065C28.7149 20.0024 28.7348 20.0972 28.7727 20.1854C28.8105 20.2735 28.8656 20.3532 28.9346 20.4199L29.4461 20.9314L28.9346 21.4429L28.9172 21.4603C27.4546 20.1896 25.6565 19.3678 23.7385 19.0934V17.5459H24.461C24.6526 17.5459 24.8364 17.4698 24.9719 17.3343C25.1074 17.1988 25.1835 17.015 25.1835 16.8234C25.1835 16.6318 25.1074 16.448 24.9719 16.3125C24.8364 16.177 24.6526 16.1009 24.461 16.1009H20.1261ZM23.016 24.1927V29.1055C23.016 29.2971 22.9399 29.4809 22.8044 29.6164C22.669 29.7519 22.4852 29.828 22.2936 29.828H17.2362C17.0446 29.828 16.8609 29.7519 16.7254 29.6164C16.5899 29.4809 16.5138 29.2971 16.5138 29.1055C16.5138 28.9139 16.5899 28.7301 16.7254 28.5946C16.8609 28.4591 17.0446 28.383 17.2362 28.383H21.5711V24.1927C21.5711 24.0011 21.6472 23.8173 21.7827 23.6818C21.9182 23.5463 22.102 23.4702 22.2936 23.4702C22.4852 23.4702 22.669 23.5463 22.8044 23.6818C22.9399 23.8173 23.016 24.0011 23.016 24.1927Z" fill="#F0F0F0"/>
</g>
</g>
<path d="M66.328 24.576C66.328 25.552 66.104 26.448 65.656 27.264C65.208 28.064 64.52 28.712 63.592 29.208C62.664 29.704 61.512 29.952 60.136 29.952H57.592V36H53.488V19.152H60.136C61.48 19.152 62.616 19.384 63.544 19.848C64.472 20.312 65.168 20.952 65.632 21.768C66.096 22.584 66.328 23.52 66.328 24.576ZM59.824 26.688C60.608 26.688 61.192 26.504 61.576 26.136C61.96 25.768 62.152 25.248 62.152 24.576C62.152 23.904 61.96 23.384 61.576 23.016C61.192 22.648 60.608 22.464 59.824 22.464H57.592V26.688H59.824ZM74.5606 36.192C73.2486 36.192 72.0646 35.912 71.0086 35.352C69.9686 34.792 69.1446 33.992 68.5366 32.952C67.9446 31.912 67.6486 30.696 67.6486 29.304C67.6486 27.928 67.9526 26.72 68.5606 25.68C69.1686 24.624 70.0006 23.816 71.0566 23.256C72.1126 22.696 73.2966 22.416 74.6086 22.416C75.9206 22.416 77.1046 22.696 78.1606 23.256C79.2166 23.816 80.0486 24.624 80.6566 25.68C81.2646 26.72 81.5686 27.928 81.5686 29.304C81.5686 30.68 81.2566 31.896 80.6326 32.952C80.0246 33.992 79.1846 34.792 78.1126 35.352C77.0566 35.912 75.8726 36.192 74.5606 36.192ZM74.5606 32.64C75.3446 32.64 76.0086 32.352 76.5526 31.776C77.1126 31.2 77.3926 30.376 77.3926 29.304C77.3926 28.232 77.1206 27.408 76.5766 26.832C76.0486 26.256 75.3926 25.968 74.6086 25.968C73.8086 25.968 73.1446 26.256 72.6166 26.832C72.0886 27.392 71.8246 28.216 71.8246 29.304C71.8246 30.376 72.0806 31.2 72.5926 31.776C73.1206 32.352 73.7766 32.64 74.5606 32.64ZM100.834 22.464C102.498 22.464 103.818 22.968 104.794 23.976C105.786 24.984 106.282 26.384 106.282 28.176V36H102.202V28.728C102.202 27.864 101.97 27.2 101.506 26.736C101.058 26.256 100.434 26.016 99.6338 26.016C98.8338 26.016 98.2018 26.256 97.7378 26.736C97.2898 27.2 97.0658 27.864 97.0658 28.728V36H92.9858V28.728C92.9858 27.864 92.7538 27.2 92.2898 26.736C91.8418 26.256 91.2178 26.016 90.4178 26.016C89.6178 26.016 88.9858 26.256 88.5218 26.736C88.0738 27.2 87.8498 27.864 87.8498 28.728V36H83.7458V22.608H87.8498V24.288C88.2658 23.728 88.8098 23.288 89.4818 22.968C90.1538 22.632 90.9138 22.464 91.7618 22.464C92.7698 22.464 93.6658 22.68 94.4498 23.112C95.2498 23.544 95.8738 24.16 96.3218 24.96C96.7858 24.224 97.4178 23.624 98.2178 23.16C99.0178 22.696 99.8898 22.464 100.834 22.464ZM115.248 36.192C113.936 36.192 112.752 35.912 111.696 35.352C110.656 34.792 109.832 33.992 109.224 32.952C108.632 31.912 108.336 30.696 108.336 29.304C108.336 27.928 108.64 26.72 109.248 25.68C109.856 24.624 110.688 23.816 111.744 23.256C112.8 22.696 113.984 22.416 115.296 22.416C116.608 22.416 117.792 22.696 118.848 23.256C119.904 23.816 120.736 24.624 121.344 25.68C121.952 26.72 122.256 27.928 122.256 29.304C122.256 30.68 121.944 31.896 121.32 32.952C120.712 33.992 119.872 34.792 118.8 35.352C117.744 35.912 116.56 36.192 115.248 36.192ZM115.248 32.64C116.032 32.64 116.696 32.352 117.24 31.776C117.8 31.2 118.08 30.376 118.08 29.304C118.08 28.232 117.808 27.408 117.264 26.832C116.736 26.256 116.08 25.968 115.296 25.968C114.496 25.968 113.832 26.256 113.304 26.832C112.776 27.392 112.512 28.216 112.512 29.304C112.512 30.376 112.768 31.2 113.28 31.776C113.808 32.352 114.464 32.64 115.248 32.64ZM123.617 29.28C123.617 27.904 123.873 26.696 124.385 25.656C124.913 24.616 125.625 23.816 126.521 23.256C127.417 22.696 128.417 22.416 129.521 22.416C130.401 22.416 131.201 22.6 131.921 22.968C132.657 23.336 133.233 23.832 133.649 24.456V18.24H137.753V36H133.649V34.08C133.265 34.72 132.713 35.232 131.993 35.616C131.289 36 130.465 36.192 129.521 36.192C128.417 36.192 127.417 35.912 126.521 35.352C125.625 34.776 124.913 33.968 124.385 32.928C123.873 31.872 123.617 30.656 123.617 29.28ZM133.649 29.304C133.649 28.28 133.361 27.472 132.785 26.88C132.225 26.288 131.537 25.992 130.721 25.992C129.905 25.992 129.209 26.288 128.633 26.88C128.073 27.456 127.793 28.256 127.793 29.28C127.793 30.304 128.073 31.12 128.633 31.728C129.209 32.32 129.905 32.616 130.721 32.616C131.537 32.616 132.225 32.32 132.785 31.728C133.361 31.136 133.649 30.328 133.649 29.304ZM146.818 36.192C145.506 36.192 144.322 35.912 143.266 35.352C142.226 34.792 141.402 33.992 140.794 32.952C140.202 31.912 139.906 30.696 139.906 29.304C139.906 27.928 140.21 26.72 140.818 25.68C141.426 24.624 142.258 23.816 143.314 23.256C144.37 22.696 145.554 22.416 146.866 22.416C148.178 22.416 149.362 22.696 150.418 23.256C151.474 23.816 152.306 24.624 152.914 25.68C153.522 26.72 153.826 27.928 153.826 29.304C153.826 30.68 153.514 31.896 152.89 32.952C152.282 33.992 151.442 34.792 150.37 35.352C149.314 35.912 148.13 36.192 146.818 36.192ZM146.818 32.64C147.602 32.64 148.266 32.352 148.81 31.776C149.37 31.2 149.65 30.376 149.65 29.304C149.65 28.232 149.378 27.408 148.834 26.832C148.306 26.256 147.65 25.968 146.866 25.968C146.066 25.968 145.402 26.256 144.874 26.832C144.346 27.392 144.082 28.216 144.082 29.304C144.082 30.376 144.338 31.2 144.85 31.776C145.378 32.352 146.034 32.64 146.818 32.64ZM160.108 24.84C160.588 24.104 161.188 23.528 161.908 23.112C162.628 22.68 163.428 22.464 164.308 22.464V26.808H163.18C162.156 26.808 161.388 27.032 160.876 27.48C160.364 27.912 160.108 28.68 160.108 29.784V36H156.004V22.608H160.108V24.84ZM172.365 36.192C171.053 36.192 169.869 35.912 168.813 35.352C167.773 34.792 166.949 33.992 166.341 32.952C165.749 31.912 165.453 30.696 165.453 29.304C165.453 27.928 165.757 26.72 166.365 25.68C166.973 24.624 167.805 23.816 168.861 23.256C169.917 22.696 171.101 22.416 172.413 22.416C173.725 22.416 174.909 22.696 175.965 23.256C177.021 23.816 177.853 24.624 178.461 25.68C179.069 26.72 179.373 27.928 179.373 29.304C179.373 30.68 179.061 31.896 178.437 32.952C177.829 33.992 176.989 34.792 175.917 35.352C174.861 35.912 173.677 36.192 172.365 36.192ZM172.365 32.64C173.149 32.64 173.813 32.352 174.357 31.776C174.917 31.2 175.197 30.376 175.197 29.304C175.197 28.232 174.925 27.408 174.381 26.832C173.853 26.256 173.197 25.968 172.413 25.968C171.613 25.968 170.949 26.256 170.421 26.832C169.893 27.392 169.629 28.216 169.629 29.304C169.629 30.376 169.885 31.2 170.397 31.776C170.925 32.352 171.581 32.64 172.365 32.64ZM198.756 19.152V22.44H194.292V36H190.188V22.44H185.724V19.152H198.756ZM202.88 21.216C202.16 21.216 201.568 21.008 201.104 20.592C200.656 20.16 200.432 19.632 200.432 19.008C200.432 18.368 200.656 17.84 201.104 17.424C201.568 16.992 202.16 16.776 202.88 16.776C203.584 16.776 204.16 16.992 204.608 17.424C205.072 17.84 205.304 18.368 205.304 19.008C205.304 19.632 205.072 20.16 204.608 20.592C204.16 21.008 203.584 21.216 202.88 21.216ZM204.92 22.608V36H200.816V22.608H204.92ZM224.982 22.464C226.646 22.464 227.966 22.968 228.942 23.976C229.934 24.984 230.43 26.384 230.43 28.176V36H226.35V28.728C226.35 27.864 226.118 27.2 225.654 26.736C225.206 26.256 224.582 26.016 223.782 26.016C222.982 26.016 222.35 26.256 221.886 26.736C221.438 27.2 221.214 27.864 221.214 28.728V36H217.134V28.728C217.134 27.864 216.902 27.2 216.438 26.736C215.99 26.256 215.366 26.016 214.566 26.016C213.766 26.016 213.134 26.256 212.67 26.736C212.222 27.2 211.998 27.864 211.998 28.728V36H207.894V22.608H211.998V24.288C212.414 23.728 212.958 23.288 213.63 22.968C214.302 22.632 215.062 22.464 215.91 22.464C216.918 22.464 217.814 22.68 218.598 23.112C219.398 23.544 220.022 24.16 220.47 24.96C220.934 24.224 221.566 23.624 222.366 23.16C223.166 22.696 224.038 22.464 224.982 22.464ZM245.924 29.088C245.924 29.472 245.901 29.872 245.853 30.288H236.565C236.629 31.12 236.893 31.76 237.357 32.208C237.837 32.64 238.421 32.856 239.109 32.856C240.133 32.856 240.845 32.424 241.245 31.56H245.613C245.389 32.44 244.981 33.232 244.389 33.936C243.813 34.64 243.085 35.192 242.205 35.592C241.325 35.992 240.341 36.192 239.253 36.192C237.941 36.192 236.773 35.912 235.749 35.352C234.725 34.792 233.925 33.992 233.349 32.952C232.773 31.912 232.485 30.696 232.485 29.304C232.485 27.912 232.765 26.696 233.325 25.656C233.901 24.616 234.701 23.816 235.725 23.256C236.749 22.696 237.925 22.416 239.253 22.416C240.549 22.416 241.701 22.688 242.709 23.232C243.717 23.776 244.501 24.552 245.061 25.56C245.637 26.568 245.924 27.744 245.924 29.088ZM241.725 28.008C241.725 27.304 241.485 26.744 241.005 26.328C240.525 25.912 239.925 25.704 239.205 25.704C238.517 25.704 237.933 25.904 237.453 26.304C236.989 26.704 236.701 27.272 236.589 28.008H241.725ZM252.194 24.84C252.674 24.104 253.274 23.528 253.994 23.112C254.714 22.68 255.514 22.464 256.394 22.464V26.808H255.266C254.242 26.808 253.474 27.032 252.962 27.48C252.45 27.912 252.194 28.68 252.194 29.784V36H248.09V22.608H252.194V24.84Z" fill="black"/>
<defs>
<clipPath id="clip0_2018_2">
<rect width="45" height="45" fill="white"/>
</clipPath>
<clipPath id="clip1_2018_2">
<rect width="23.1193" height="23.1193" fill="white" transform="translate(10.7339 16.1009)"/>
</clipPath>
</defs>
</svg>
